<mxfile host="app.diagrams.net" modified="2023-04-20T20:31:22.406Z" agent="Mozilla/5.0 (Windows NT 10.0; Win64; x64) AppleWebKit/537.36 (KHTML, like Gecko) Chrome/112.0.0.0 Safari/537.36" etag="5vugTNUUlGSUKAdLIS8D" version="21.2.1" type="device">
  <diagram id="D20KMjvGuDwmrvYIPlAX" name="Page-1">
    <mxGraphModel dx="1670" dy="1556" grid="0" gridSize="10" guides="0" tooltips="1" connect="1" arrows="1" fold="1" page="0" pageScale="1" pageWidth="827" pageHeight="1169" math="0" shadow="0">
      <root>
        <mxCell id="0" />
        <mxCell id="1" parent="0" />
        <mxCell id="1ipDuGfdl1B0XLeZwhUJ-30" style="edgeStyle=orthogonalEdgeStyle;rounded=0;orthogonalLoop=1;jettySize=auto;html=1;exitX=0.31;exitY=0.8;exitDx=0;exitDy=0;exitPerimeter=0;endArrow=none;endFill=0;entryX=0.324;entryY=-0.012;entryDx=0;entryDy=0;entryPerimeter=0;" parent="1" source="1ipDuGfdl1B0XLeZwhUJ-1" target="1ipDuGfdl1B0XLeZwhUJ-2" edge="1">
          <mxGeometry relative="1" as="geometry">
            <mxPoint x="410" y="180" as="targetPoint" />
            <Array as="points" />
          </mxGeometry>
        </mxCell>
        <mxCell id="1ipDuGfdl1B0XLeZwhUJ-47" style="edgeStyle=orthogonalEdgeStyle;rounded=0;orthogonalLoop=1;jettySize=auto;html=1;endArrow=none;endFill=0;" parent="1" target="1ipDuGfdl1B0XLeZwhUJ-44" edge="1">
          <mxGeometry relative="1" as="geometry">
            <mxPoint x="413" y="50" as="sourcePoint" />
          </mxGeometry>
        </mxCell>
        <mxCell id="1ipDuGfdl1B0XLeZwhUJ-1" value="" style="ellipse;shape=cloud;whiteSpace=wrap;html=1;fillColor=#f5f5f5;fontColor=#333333;strokeColor=#666666;" parent="1" vertex="1">
          <mxGeometry x="320" y="-30" width="160" height="90" as="geometry" />
        </mxCell>
        <mxCell id="1ipDuGfdl1B0XLeZwhUJ-2" value="CloudflareÂ " style="shape=image;verticalLabelPosition=bottom;labelBackgroundColor=default;verticalAlign=top;aspect=fixed;imageAspect=0;image=data:image/png,iVBORw0KGgoAAAANSUhEUgAAAZAAAADKCAYAAACL3RbpAAAAAXNSR0IArs4c6QAAAARnQU1BAACxjwv8YQUAAAAJcEhZcwAADsMAAA7DAcdvqGQAAA69SURBVHhe7d0/jx1XGQfgvbt2HJLCFIlIgWSX0MSRaFyAI9GQKpULCwnzCSJZEaKjSociFIlPkERCLiIKqoSOkIIGiaQJZYwoQKQgBQkhXi/3Hc9sNs7ee+ee+XfOzPNIqzt3idaJ2Tu/ed/3zJnVydoBAOzpsH4FgL0IEACSCBAAkggQAJIIEACSCBAAkggQAJIIEACSCBAAkggQAJIIEACSCBAAkggQAJIIEACSCBAAkggQAJIIEACSCBAAkggQAJIIEACSrE7W6mNgh5N///3g5JP11/r1wZnjRryvXs98b/XNb9dHD60uP3zffP/oyvXqNd4f1sdQAgEC56gC4t6fqpCoXtdfY2mCJcIkwubo6nXBQpYECKxFYNx//63Rw2IfTYUSFYtqhRwIEBapCYxoOR2vX0vUhMiFazeFCZMQICxGExrHH6yDY308J2erk6N1oMAYBAizVkJrqm8qE8YiQJilJjjuv/ta/Z1lijA5evbmwcXn79Tfgf4IEGbliz+8NssWVVeqEoYgQJgFwdFehMljL74qSOhMgFAsbapuBAldCRCKFBWH4OiHICGVAKEosZLqf7/7mVbVAGL578Ubd6pAgTYECEWIwIjgWMpS3KlEeFi1RVsChOxpV41PW4s2BAjZUnVM78KNO6oRNhIgZEnVkQ9tLTYRIGRF1ZEv1QiPEiBkI3bFjfAgX1GNXPrJXSu1qAgQsqBlVQ4tLRoChElpWZVLSwsBwmQiND5/41b9jhLFMt9Lt+/W71gaAcIkhMd8mIss12H9CqOJYbnwmI9oQ37+5q3qlWVRgTAqw/L5igrE3evLIkAYTQzLo/pgvqzQWhYtLEYRLSvhMX/RxooHe1lVtwwChMFFeDihLIel2cshQBiUE8kyCZFlECAMJgbm2lbL1YSI1VnzJUAYRASH1VZEeFjiO19WYdG7aFu4z4OzYnXW4y+9V79jLlQg9Ep4cJ6qEvF7MTsChF5FzxvOExcXMRdjPgQIvYkrTL1utom5mBCZDwFCL+KkYMkmbbjRcD4ECJ3FycCKK9qKKtXy3nkQIHRiOEqK+L35wkVH8QQInRiakyruFXKjadkECMniw6+XTRdRhWhllUuAkKTpY0MXfo/KJkBI4kNPX9wfUi4Bwt4s2aVvsbRXK6s8AoS9WbJL36zKKpMAYS9aVwzFoozyCBBaiw+3ZZcMyQVKWQQIrRl0MrRoZblIKYcAoRXtBcZiFlIOAUIrPtSMpRqoq3aLIEDYKaoPSywZUyzrJX8ChJ3u60kzMrOQMggQtjL7YCrapvkTIGyl+mAqqpD8rU7W6mMyEB+ak0/WH5yP/vTwtcUHaPXNbx8cXrleHR+tX8++7yIqD8/6YErxu/z4S+/V78iNAJlYBEZc5cfJus9WUXzwwtGzNw8uXLt5+n4fER7aV0zt0u27vVwQ0T8BMpEmOMbYV6qpSKI6OVqHSVufvXK1PoLpxO9uhAj5ESAjakJjyp1HI0yiKjm6en3rVV20zmwrQS5UIXkSICOJG6Ny2sW2CZKLz9+pv/NV//319ycLOXjUhRt3Nv6uMh0BMrA4CceVfK6zhPOCRPVBbuL31DA9P5bxDiSCI6qOuJLPeRBdtdXWldHZiuPY4JzMxO+mBR35UYEMIH7RS1z+2lQjHhhFjmIByGMvvlq/IwcCpGfaPzAMbaz8aGH1KIJDeMAwtLHyI0B6Ei0r2y7AsGytkxcB0lFcFbljG8bhc5YXAdJRzkt0YW60sfIiQDpQeQBLJkASxT0ewgPG53G3+RAgCSI43CsB04jHHJAHAbKnCI8SbxKEuTAHyYcA2ZPyGaYXIcL0BMge4j4PVz4wvbgrnekJkD14yD/kYXVZgORAgLQUrStlM0wvNlVUgeTBZootRHDEdufA9GJH3m2PZj75118OHvz5lwcnn/6j/s6XVk888/Dgyfq1tnrq2pev6//t9J9jKwHSQtxtbp8ryMM3fvFRffR1ERrHb/+4ftfN6unnHr6uQ0WwnE+AtPDZK1frI2BKu54J8uDD16uvoUSoVIFy5UfCZE2A7OD5HpCPeB7ItvnH8R9frlpYY4lAOfzO7dNqZWkEyA5nH/UKTOfwyvWDS7fv1u++rs/21b6WWplYhbVF3PMhPCAPF7YMzsOYlcejqsH9h69XARZV0IN7b587xJ8bAbKFh9dAPratvKp8+s/6YFrNKrAIkwiVOQeJANnCyivIw87wWBtyeJ6qqUo2LSsunQDZwJYlkI+d7avMT87R0ppjkAiQDcw+IB8xQN/m5N479VHeToNkJjMSAbLBsQoEsrDtvo/Gycfv10dliEqkqkYmHPz3QYBsoAKBPOysPtZX8iWeiOPfuVqxVXBbS4Bs4KlnML02GyeW0r7a5GxbqzQCZAMVCEzvaEf1MSenba2CqhEBcg4rsCAPpS7fTRVVyIN3Xy4mRATIOVQfML024TGHlUyPiv+mUlpaAgTI0sUbd+qjzUqff2wT7axqc8iMQ1KAANmJlVdtnjo45wAJ1bYoGbe0BAiQnV13noc4qc6xhfWo+G/MNUQECJCdVvOPmVcfZ+UaIgIEyMqFFrOPJYrwiOF6TjdNCpBztOm9AsO4+Hy7AClt+5K+NM8byYEAAbKxT/VR+j5SXeRyw6EAOcfqsgoEptC6+shwoDy2qp018d+DADlHtLC0sWBce1UfCxqgbzP1YF2AbKAKgfHEBVvb6oMvRXhMGSICZINdW0gD/WnzzI+vyOT55zmYMkQEyAaHWlgwimhduWDrJsJjirbe6mStPl6k2Dgxdt99cGYDxXgWSHzPpoowrAiOS7fv1u/aq7Y+L/D5GUM7/O5Pq6+xLCpAIhSOP1oHwzogmuAAphPhkVJ9CJDNjl74zcHqiWfqd8OadYBESNx//60qKIQF5CU1PIIA2SzC4/DGr0YJkdkFSBMaxx+8pQUFmYqheZv9rjaJ8IgQ4XxjtbJmEyDHERrRolq/AvmKoXnXJbtxF3ps6cFmh9/7+brCe6F+N4ziA+SLP7x2cP/d1+p3QM6i6th7ye4GOdyJnbMxWlnFLuON4PjslavCAwoR846+wqPy5DiD4lKNsbS3uAARHFCeqDxSlutus3rqWn3EJg8+fH3QKq2YAImB+Odv3BIcUJiYefRaedRWV3402nLVkg252KCIAImq47+//r6luFCYqDqG2uMqwiNChO2q56oPtOQ56yF6VXW8ectyXChMbI4YVccYW5QYpu821EA92wokluNG1SE8oCwRGo+/9N4o4RFUIbsNNVDPsgL53+9+5n4OKEy1JfuNO51uEEylCtltiCokqwqkGZQLDyhLU3VMER5hzP2fSlVVIT0/BjibCiTCI1pWQDnGnHXsEifIqZ/Ql7u+q5AsKpBYXSU8oBwRHLE8d8xZxy5DtGjmpu8qZPIKJMIj2lZA/iI4jp69mf3jZ6sb6O69oxo5x+rp5w6OfvCr+l03kwaI8IAyRJVx4drNyWYcKar7H/76Ru99/znoa2Y0WYCYeUC+mkojHu1cUmicJwLk5G+/f/iqIqnELr2xW29XkwSI8IB8RFiEqDJWl9eBcfV6NnONvlUh8vH71dfBf/6x6EDpowqZJECibWVbEkrTnGh3iZNwG21+XtufFaJa2OXRP3OuQbGPpsV1Giaf/vMrr6ffXwdOYw7B08fzQkYPEOExrTmeBLdp82fv8/PgrCpIzguWAkKojzbWqAHi4U/jiBNiCStlYMma2cyUz3bv2sYa7T6QqDqExzjixi7hAXmL5bRRAUx530rTvks1WoDE/lYML5e7goF2Ikgm8/EH9UGaUQIk5h521QX4uq5VQBdd22eDB0i0rgzNx3PfRpRQjKEfOdtGlz9/8ACJwTnjibCOv/N4japP5Qf5iSv/eNRsBMjUulRAg67CsuqqHH0vjQ1tf2abn9dmeW+wxJchPboc9ytX77Fkt1m+u7b1n81Il72xBg2Qz165Wh/BvPUZlmHo8I2fv+TFFnEyP73yfuSejVCd7Gd24+A2qct5BwsQTxWE/EWQRAhFmMRmiXOsuKpBcb3aqLr3YuZhkCK7AFF9QHkiQKZ6LG2fmtCY8ia9kqRuazJIgKg+oGwRJKXtZhBh0ey6y35StzUZJEBUHzAP0dqKm1Nzbm0Jju5SA6T3ZbyW7cJ8xHLwz9+8leXnOoLj+O0fV8thhUc3qXOh3gPk+AOtK5iTuJcoPte53BAcYXEaHAbivUgN4F4DJOYeblyD+YnPdcw2pw6R4z++XH0Jjv6l/J32GyCZXKEA/WtCZIqLxLhCvv/bH2pVDenMfS9t9V6BAPPVhMiYmqqDYU1agQgPWIZoY43RyooTWtWuUnVkq78A0b6CxRh6VVYzKBceeestQHJZoQEMb8gqpAoPLavxndkLrK3eAsTqK1iWIaqQ2N5ceExkqgAx/4DlOfmk34vGXJ6PQXv9BIj2FSxOdB36amNFcNj4sDy9BIj5ByzT8UfdP/sRHCqPMvUSIOYfsExdLx5jYB6tK8rUOUBUH0AKq60y88S36oP2OgeI6gPYV3OTIGXrXoEIEGBP2lYZmqQC6XkpHzBv1QOg3GE+C1pYwGiidaX6yNPqiWfqo/ZUIECyfR91KzzmpXOAALQR93poXWXsyQkqEGC5jq5cr492O7n3Tn1EjqZpYZmBwGIdtgyQqvpIeGAR40gJj6ACAZK1nYGoPjKX0L4KnQNk3yEaMA9tq4+Ye6g+8rZ66lp9tB8VCJCk7cWjlVf5myxAVpdVILBEF67drI82i8pD9ZG/1dPP1Uf7UYEASdq0sMw+8pc6QA9mIMDejlpWH57zUYDEAXrQwgL21ub+D9VHGVLnH0ELC9ib9tV8TBogR1fbLeUD5iHCY1fr2vC8HKkD9NBLC8scBJbj4vN36qPN7HlVhsMrL9RHaXoZoj/24quthmpAuZrPepv2VZyYuqzuYXjx/9Hh935ev0uzOlmrjwGgNUN0AJIIEACSCBAAkggQAJIIEACSCBAAkggQAJIIEACSCBAAkggQAJIIEACSCBAAEhwc/B9f6HA0jlwoZQAAAABJRU5ErkJggg==;" parent="1" vertex="1">
          <mxGeometry x="334" y="310" width="110" height="55.55" as="geometry" />
        </mxCell>
        <mxCell id="1ipDuGfdl1B0XLeZwhUJ-18" style="edgeStyle=orthogonalEdgeStyle;rounded=0;orthogonalLoop=1;jettySize=auto;html=1;exitX=0.5;exitY=0;exitDx=0;exitDy=0;endArrow=none;endFill=0;entryX=0.07;entryY=0.4;entryDx=0;entryDy=0;entryPerimeter=0;" parent="1" source="1ipDuGfdl1B0XLeZwhUJ-3" target="1ipDuGfdl1B0XLeZwhUJ-1" edge="1">
          <mxGeometry relative="1" as="geometry" />
        </mxCell>
        <mxCell id="1ipDuGfdl1B0XLeZwhUJ-3" value="Swisscom" style="rounded=1;whiteSpace=wrap;html=1;" parent="1" vertex="1">
          <mxGeometry x="188" y="40" width="120" height="60" as="geometry" />
        </mxCell>
        <mxCell id="1ipDuGfdl1B0XLeZwhUJ-19" style="edgeStyle=orthogonalEdgeStyle;rounded=0;orthogonalLoop=1;jettySize=auto;html=1;exitX=0.5;exitY=0;exitDx=0;exitDy=0;endArrow=none;endFill=0;entryX=0.875;entryY=0.5;entryDx=0;entryDy=0;entryPerimeter=0;" parent="1" source="1ipDuGfdl1B0XLeZwhUJ-4" target="1ipDuGfdl1B0XLeZwhUJ-1" edge="1">
          <mxGeometry relative="1" as="geometry" />
        </mxCell>
        <mxCell id="1ipDuGfdl1B0XLeZwhUJ-4" value="Starlink" style="rounded=1;whiteSpace=wrap;html=1;" parent="1" vertex="1">
          <mxGeometry x="520" y="40" width="120" height="60" as="geometry" />
        </mxCell>
        <mxCell id="1ipDuGfdl1B0XLeZwhUJ-20" style="edgeStyle=orthogonalEdgeStyle;rounded=0;orthogonalLoop=1;jettySize=auto;html=1;exitX=0.5;exitY=0;exitDx=0;exitDy=0;entryX=0.88;entryY=0.25;entryDx=0;entryDy=0;entryPerimeter=0;endArrow=none;endFill=0;" parent="1" source="1ipDuGfdl1B0XLeZwhUJ-5" target="1ipDuGfdl1B0XLeZwhUJ-1" edge="1">
          <mxGeometry relative="1" as="geometry" />
        </mxCell>
        <mxCell id="1ipDuGfdl1B0XLeZwhUJ-5" value="Sosh" style="rounded=1;whiteSpace=wrap;html=1;" parent="1" vertex="1">
          <mxGeometry x="695" y="40" width="120" height="60" as="geometry" />
        </mxCell>
        <mxCell id="1ipDuGfdl1B0XLeZwhUJ-6" value="Z" style="rounded=1;arcSize=10;dashed=1;fillColor=none;gradientColor=none;dashPattern=1 1;strokeWidth=2;verticalAlign=top;" parent="1" vertex="1">
          <mxGeometry x="-10" y="120" width="320" height="360" as="geometry" />
        </mxCell>
        <mxCell id="1ipDuGfdl1B0XLeZwhUJ-7" value="N" style="rounded=1;arcSize=10;dashed=1;fillColor=none;gradientColor=none;dashPattern=1 1;strokeWidth=2;verticalAlign=top;" parent="1" vertex="1">
          <mxGeometry x="520" y="120" width="320" height="360" as="geometry" />
        </mxCell>
        <mxCell id="1ipDuGfdl1B0XLeZwhUJ-15" style="edgeStyle=orthogonalEdgeStyle;rounded=0;orthogonalLoop=1;jettySize=auto;html=1;exitX=0.5;exitY=0;exitDx=0;exitDy=0;exitPerimeter=0;endArrow=none;endFill=0;" parent="1" source="1ipDuGfdl1B0XLeZwhUJ-33" target="1ipDuGfdl1B0XLeZwhUJ-3" edge="1">
          <mxGeometry relative="1" as="geometry">
            <mxPoint x="220" y="145.55000000000018" as="sourcePoint" />
            <Array as="points">
              <mxPoint x="220" y="114" />
              <mxPoint x="248" y="114" />
            </Array>
          </mxGeometry>
        </mxCell>
        <mxCell id="1ipDuGfdl1B0XLeZwhUJ-27" style="edgeStyle=orthogonalEdgeStyle;rounded=0;orthogonalLoop=1;jettySize=auto;html=1;entryX=0.5;entryY=0;entryDx=0;entryDy=0;entryPerimeter=0;endArrow=none;endFill=0;exitX=0.145;exitY=0.855;exitDx=0;exitDy=0;exitPerimeter=0;" parent="1" source="1ipDuGfdl1B0XLeZwhUJ-33" target="1ipDuGfdl1B0XLeZwhUJ-26" edge="1">
          <mxGeometry relative="1" as="geometry">
            <mxPoint x="195" y="170.55000000000018" as="sourcePoint" />
          </mxGeometry>
        </mxCell>
        <mxCell id="1ipDuGfdl1B0XLeZwhUJ-17" style="edgeStyle=orthogonalEdgeStyle;rounded=0;orthogonalLoop=1;jettySize=auto;html=1;exitX=0.5;exitY=0;exitDx=0;exitDy=0;exitPerimeter=0;endArrow=none;endFill=0;" parent="1" source="1ipDuGfdl1B0XLeZwhUJ-11" target="1ipDuGfdl1B0XLeZwhUJ-5" edge="1">
          <mxGeometry relative="1" as="geometry" />
        </mxCell>
        <mxCell id="1ipDuGfdl1B0XLeZwhUJ-22" style="edgeStyle=orthogonalEdgeStyle;rounded=0;orthogonalLoop=1;jettySize=auto;html=1;exitX=0;exitY=0.5;exitDx=0;exitDy=0;exitPerimeter=0;entryX=0.8555;entryY=0.145;entryDx=0;entryDy=0;entryPerimeter=0;endArrow=none;endFill=0;" parent="1" source="1ipDuGfdl1B0XLeZwhUJ-11" target="1ipDuGfdl1B0XLeZwhUJ-12" edge="1">
          <mxGeometry relative="1" as="geometry" />
        </mxCell>
        <mxCell id="1ipDuGfdl1B0XLeZwhUJ-11" value="SoshBox" style="sketch=0;points=[[0.5,0,0],[1,0.5,0],[0.5,1,0],[0,0.5,0],[0.145,0.145,0],[0.8555,0.145,0],[0.855,0.8555,0],[0.145,0.855,0]];verticalLabelPosition=bottom;html=1;verticalAlign=top;aspect=fixed;align=center;pointerEvents=1;shape=mxgraph.cisco19.rect;prIcon=router;fillColor=#FAFAFA;strokeColor=#005073;" parent="1" vertex="1">
          <mxGeometry x="730" y="142.78" width="50" height="50" as="geometry" />
        </mxCell>
        <mxCell id="1ipDuGfdl1B0XLeZwhUJ-35" style="edgeStyle=orthogonalEdgeStyle;rounded=0;orthogonalLoop=1;jettySize=auto;html=1;exitX=1;exitY=0.5;exitDx=0;exitDy=0;exitPerimeter=0;entryX=0.5;entryY=0.34;entryDx=0;entryDy=0;entryPerimeter=0;endArrow=none;endFill=0;" parent="1" source="1ipDuGfdl1B0XLeZwhUJ-12" target="1ipDuGfdl1B0XLeZwhUJ-34" edge="1">
          <mxGeometry relative="1" as="geometry" />
        </mxCell>
        <mxCell id="1ipDuGfdl1B0XLeZwhUJ-46" style="edgeStyle=orthogonalEdgeStyle;rounded=0;orthogonalLoop=1;jettySize=auto;html=1;exitX=0;exitY=0.5;exitDx=0;exitDy=0;exitPerimeter=0;entryX=1;entryY=0.5;entryDx=0;entryDy=0;entryPerimeter=0;endArrow=none;endFill=0;" parent="1" source="1ipDuGfdl1B0XLeZwhUJ-12" target="1ipDuGfdl1B0XLeZwhUJ-45" edge="1">
          <mxGeometry relative="1" as="geometry" />
        </mxCell>
        <mxCell id="1ipDuGfdl1B0XLeZwhUJ-55" style="edgeStyle=orthogonalEdgeStyle;rounded=0;orthogonalLoop=1;jettySize=auto;html=1;exitX=0.145;exitY=0.855;exitDx=0;exitDy=0;exitPerimeter=0;entryX=0.5;entryY=0;entryDx=0;entryDy=0;entryPerimeter=0;endArrow=none;endFill=0;" parent="1" source="1ipDuGfdl1B0XLeZwhUJ-12" target="1ipDuGfdl1B0XLeZwhUJ-53" edge="1">
          <mxGeometry relative="1" as="geometry" />
        </mxCell>
        <mxCell id="1ipDuGfdl1B0XLeZwhUJ-56" style="edgeStyle=orthogonalEdgeStyle;rounded=0;orthogonalLoop=1;jettySize=auto;html=1;exitX=0.855;exitY=0.8555;exitDx=0;exitDy=0;exitPerimeter=0;entryX=0.5;entryY=0;entryDx=0;entryDy=0;entryPerimeter=0;endArrow=none;endFill=0;" parent="1" source="1ipDuGfdl1B0XLeZwhUJ-12" target="1ipDuGfdl1B0XLeZwhUJ-54" edge="1">
          <mxGeometry relative="1" as="geometry" />
        </mxCell>
        <mxCell id="1ipDuGfdl1B0XLeZwhUJ-12" value="Ubiquity&lt;br&gt;UDM-PRO-SE" style="sketch=0;points=[[0.5,0,0],[1,0.5,0],[0.5,1,0],[0,0.5,0],[0.145,0.145,0],[0.8555,0.145,0],[0.855,0.8555,0],[0.145,0.855,0]];verticalLabelPosition=bottom;html=1;verticalAlign=top;aspect=fixed;align=center;pointerEvents=1;shape=mxgraph.cisco19.rect;prIcon=router;fillColor=#FAFAFA;strokeColor=#005073;" parent="1" vertex="1">
          <mxGeometry x="645" y="220" width="50" height="50" as="geometry" />
        </mxCell>
        <mxCell id="1ipDuGfdl1B0XLeZwhUJ-16" style="edgeStyle=orthogonalEdgeStyle;rounded=0;orthogonalLoop=1;jettySize=auto;html=1;exitX=0.5;exitY=0;exitDx=0;exitDy=0;exitPerimeter=0;endArrow=none;endFill=0;" parent="1" source="1ipDuGfdl1B0XLeZwhUJ-13" target="1ipDuGfdl1B0XLeZwhUJ-4" edge="1">
          <mxGeometry relative="1" as="geometry" />
        </mxCell>
        <mxCell id="1ipDuGfdl1B0XLeZwhUJ-21" style="edgeStyle=orthogonalEdgeStyle;rounded=0;orthogonalLoop=1;jettySize=auto;html=1;exitX=1;exitY=0.5;exitDx=0;exitDy=0;exitPerimeter=0;entryX=0.145;entryY=0.145;entryDx=0;entryDy=0;entryPerimeter=0;endArrow=none;endFill=0;" parent="1" source="1ipDuGfdl1B0XLeZwhUJ-13" target="1ipDuGfdl1B0XLeZwhUJ-12" edge="1">
          <mxGeometry relative="1" as="geometry" />
        </mxCell>
        <mxCell id="1ipDuGfdl1B0XLeZwhUJ-13" value="StarlinkBase" style="sketch=0;points=[[0.5,0,0],[1,0.5,0],[0.5,1,0],[0,0.5,0],[0.145,0.145,0],[0.8555,0.145,0],[0.855,0.8555,0],[0.145,0.855,0]];verticalLabelPosition=bottom;html=1;verticalAlign=top;aspect=fixed;align=center;pointerEvents=1;shape=mxgraph.cisco19.rect;prIcon=router;fillColor=#FAFAFA;strokeColor=#005073;" parent="1" vertex="1">
          <mxGeometry x="555" y="142.78" width="50" height="50" as="geometry" />
        </mxCell>
        <mxCell id="1ipDuGfdl1B0XLeZwhUJ-40" style="edgeStyle=orthogonalEdgeStyle;rounded=0;orthogonalLoop=1;jettySize=auto;html=1;exitX=0.5;exitY=1;exitDx=0;exitDy=0;exitPerimeter=0;endArrow=none;endFill=0;" parent="1" source="1ipDuGfdl1B0XLeZwhUJ-26" target="1ipDuGfdl1B0XLeZwhUJ-36" edge="1">
          <mxGeometry relative="1" as="geometry" />
        </mxCell>
        <mxCell id="1ipDuGfdl1B0XLeZwhUJ-51" style="edgeStyle=orthogonalEdgeStyle;rounded=0;orthogonalLoop=1;jettySize=auto;html=1;exitX=0.5;exitY=1;exitDx=0;exitDy=0;exitPerimeter=0;entryX=0.5;entryY=0;entryDx=0;entryDy=0;entryPerimeter=0;endArrow=none;endFill=0;" parent="1" source="1ipDuGfdl1B0XLeZwhUJ-26" target="1ipDuGfdl1B0XLeZwhUJ-49" edge="1">
          <mxGeometry relative="1" as="geometry" />
        </mxCell>
        <mxCell id="1ipDuGfdl1B0XLeZwhUJ-52" style="edgeStyle=orthogonalEdgeStyle;rounded=0;orthogonalLoop=1;jettySize=auto;html=1;exitX=0.5;exitY=1;exitDx=0;exitDy=0;exitPerimeter=0;entryX=0.5;entryY=0;entryDx=0;entryDy=0;entryPerimeter=0;endArrow=none;endFill=0;" parent="1" source="1ipDuGfdl1B0XLeZwhUJ-26" target="1ipDuGfdl1B0XLeZwhUJ-50" edge="1">
          <mxGeometry relative="1" as="geometry" />
        </mxCell>
        <mxCell id="1ipDuGfdl1B0XLeZwhUJ-26" value="USW-Flex-Mini-5 (L2)" style="sketch=0;points=[[0.015,0.015,0],[0.985,0.015,0],[0.985,0.985,0],[0.015,0.985,0],[0.25,0,0],[0.5,0,0],[0.75,0,0],[1,0.25,0],[1,0.5,0],[1,0.75,0],[0.75,1,0],[0.5,1,0],[0.25,1,0],[0,0.75,0],[0,0.5,0],[0,0.25,0]];verticalLabelPosition=top;html=1;verticalAlign=bottom;aspect=fixed;align=center;pointerEvents=1;shape=mxgraph.cisco19.rect;prIcon=l2_switch;fillColor=#FAFAFA;strokeColor=#005073;labelPosition=center;" parent="1" vertex="1">
          <mxGeometry x="120" y="260" width="50" height="50" as="geometry" />
        </mxCell>
        <mxCell id="1ipDuGfdl1B0XLeZwhUJ-31" style="edgeStyle=orthogonalEdgeStyle;rounded=0;orthogonalLoop=1;jettySize=auto;html=1;exitX=0;exitY=0.5;exitDx=0;exitDy=0;exitPerimeter=0;entryX=0.75;entryY=1;entryDx=0;entryDy=0;endArrow=none;endFill=0;" parent="1" source="1ipDuGfdl1B0XLeZwhUJ-29" target="1ipDuGfdl1B0XLeZwhUJ-2" edge="1">
          <mxGeometry relative="1" as="geometry" />
        </mxCell>
        <mxCell id="1ipDuGfdl1B0XLeZwhUJ-29" value="&lt;span style=&quot;background-color: rgb(255, 255, 255);&quot;&gt;CF Zero Trust&lt;/span&gt;&lt;br style=&quot;padding: 0px; margin: 0px;&quot;&gt;&lt;span style=&quot;background-color: rgb(255, 255, 255);&quot;&gt;Tunnel&lt;/span&gt;" style="sketch=0;points=[[0.015,0.015,0],[0.985,0.015,0],[0.985,0.985,0],[0.015,0.985,0],[0.25,0,0],[0.5,0,0],[0.75,0,0],[1,0.25,0],[1,0.5,0],[1,0.75,0],[0.75,1,0],[0.5,1,0],[0.25,1,0],[0,0.75,0],[0,0.5,0],[0,0.25,0]];verticalLabelPosition=bottom;html=1;verticalAlign=top;aspect=fixed;align=center;pointerEvents=1;shape=mxgraph.cisco19.rect;prIcon=virtual_private_network_connector;fillColor=#FAFAFA;strokeColor=#005073;" parent="1" vertex="1">
          <mxGeometry x="480" y="350" width="64" height="50" as="geometry" />
        </mxCell>
        <mxCell id="1ipDuGfdl1B0XLeZwhUJ-43" style="edgeStyle=orthogonalEdgeStyle;rounded=0;orthogonalLoop=1;jettySize=auto;html=1;exitX=0;exitY=0.5;exitDx=0;exitDy=0;exitPerimeter=0;entryX=1;entryY=0.5;entryDx=0;entryDy=0;entryPerimeter=0;endArrow=none;endFill=0;" parent="1" source="1ipDuGfdl1B0XLeZwhUJ-33" target="1ipDuGfdl1B0XLeZwhUJ-42" edge="1">
          <mxGeometry relative="1" as="geometry" />
        </mxCell>
        <mxCell id="1ipDuGfdl1B0XLeZwhUJ-59" style="edgeStyle=orthogonalEdgeStyle;rounded=0;orthogonalLoop=1;jettySize=auto;html=1;exitX=1;exitY=0.5;exitDx=0;exitDy=0;exitPerimeter=0;endArrow=none;endFill=0;entryX=1;entryY=0.5;entryDx=0;entryDy=0;entryPerimeter=0;" parent="1" source="1ipDuGfdl1B0XLeZwhUJ-33" target="1ipDuGfdl1B0XLeZwhUJ-58" edge="1">
          <mxGeometry relative="1" as="geometry" />
        </mxCell>
        <mxCell id="1ipDuGfdl1B0XLeZwhUJ-33" value="SwisscomBox" style="sketch=0;points=[[0.5,0,0],[1,0.5,0],[0.5,1,0],[0,0.5,0],[0.145,0.145,0],[0.8555,0.145,0],[0.855,0.8555,0],[0.145,0.855,0]];verticalLabelPosition=bottom;html=1;verticalAlign=top;aspect=fixed;align=center;pointerEvents=1;shape=mxgraph.cisco19.rect;prIcon=wireless_router;fillColor=#FAFAFA;strokeColor=#005073;" parent="1" vertex="1">
          <mxGeometry x="195" y="140.55" width="50" height="60" as="geometry" />
        </mxCell>
        <mxCell id="1ipDuGfdl1B0XLeZwhUJ-34" value="U6-LR" style="points=[[0.03,0.36,0],[0.18,0,0],[0.5,0.34,0],[0.82,0,0],[0.97,0.36,0],[1,0.67,0],[0.975,0.975,0],[0.5,1,0],[0.025,0.975,0],[0,0.67,0]];verticalLabelPosition=bottom;sketch=0;html=1;verticalAlign=top;aspect=fixed;align=center;pointerEvents=1;shape=mxgraph.cisco19.wireless_access_point;fillColor=#005073;strokeColor=none;" parent="1" vertex="1">
          <mxGeometry x="765" y="280" width="50" height="50" as="geometry" />
        </mxCell>
        <mxCell id="1ipDuGfdl1B0XLeZwhUJ-36" value="Deepthread" style="points=[[0.03,0.03,0],[0.5,0,0],[0.97,0.03,0],[1,0.4,0],[0.97,0.745,0],[0.5,1,0],[0.03,0.745,0],[0,0.4,0]];verticalLabelPosition=bottom;sketch=0;html=1;verticalAlign=top;aspect=fixed;align=center;pointerEvents=1;shape=mxgraph.cisco19.workstation;fillColor=#005073;strokeColor=none;" parent="1" vertex="1">
          <mxGeometry x="10" y="360" width="50" height="40" as="geometry" />
        </mxCell>
        <mxCell id="1ipDuGfdl1B0XLeZwhUJ-37" value="Red" style="points=[[0.13,0.02,0],[0.5,0,0],[0.87,0.02,0],[0.885,0.4,0],[0.985,0.985,0],[0.5,1,0],[0.015,0.985,0],[0.115,0.4,0]];verticalLabelPosition=bottom;sketch=0;html=1;verticalAlign=top;aspect=fixed;align=center;pointerEvents=1;shape=mxgraph.cisco19.laptop;fillColor=#005073;strokeColor=none;" parent="1" vertex="1">
          <mxGeometry x="344" y="-92.5" width="50" height="35" as="geometry" />
        </mxCell>
        <mxCell id="1ipDuGfdl1B0XLeZwhUJ-38" value="iPadMini" style="sketch=0;points=[[0.015,0.015,0],[0.985,0.015,0],[0.985,0.985,0],[0.015,0.985,0],[0.25,0,0],[0.5,0,0],[0.75,0,0],[1,0.25,0],[1,0.5,0],[1,0.75,0],[0.75,1,0],[0.5,1,0],[0.25,1,0],[0,0.75,0],[0,0.5,0],[0,0.25,0]];verticalLabelPosition=bottom;html=1;verticalAlign=top;aspect=fixed;align=center;pointerEvents=1;shape=mxgraph.cisco19.handheld;fillColor=#005073;strokeColor=none;" parent="1" vertex="1">
          <mxGeometry x="232.5" y="360" width="37.5" height="50" as="geometry" />
        </mxCell>
        <mxCell id="1ipDuGfdl1B0XLeZwhUJ-39" value="Xr" style="sketch=0;points=[[0.015,0.015,0],[0.985,0.015,0],[0.985,0.985,0],[0.015,0.985,0],[0.25,0,0],[0.5,0,0],[0.75,0,0],[1,0.25,0],[1,0.5,0],[1,0.75,0],[0.75,1,0],[0.5,1,0],[0.25,1,0],[0,0.75,0],[0,0.5,0],[0,0.25,0]];verticalLabelPosition=bottom;html=1;verticalAlign=top;aspect=fixed;align=center;pointerEvents=1;shape=mxgraph.cisco19.cell_phone;fillColor=#005073;strokeColor=none;" parent="1" vertex="1">
          <mxGeometry x="438" y="-100" width="25" height="50" as="geometry" />
        </mxCell>
        <mxCell id="1ipDuGfdl1B0XLeZwhUJ-42" value="NAS" style="sketch=0;points=[[0.015,0.015,0],[0.985,0.015,0],[0.985,0.985,0],[0.015,0.985,0],[0.25,0,0],[0.5,0,0],[0.75,0,0],[1,0.25,0],[1,0.5,0],[1,0.75,0],[0.75,1,0],[0.5,1,0],[0.25,1,0],[0,0.75,0],[0,0.5,0],[0,0.25,0]];verticalLabelPosition=bottom;html=1;verticalAlign=top;aspect=fixed;align=center;pointerEvents=1;shape=mxgraph.cisco19.rect;prIcon=storage;fillColor=#FAFAFA;strokeColor=#005073;" parent="1" vertex="1">
          <mxGeometry x="30" y="145.55" width="64" height="50" as="geometry" />
        </mxCell>
        <mxCell id="1ipDuGfdl1B0XLeZwhUJ-48" style="edgeStyle=orthogonalEdgeStyle;rounded=0;orthogonalLoop=1;jettySize=auto;html=1;exitX=1;exitY=0.5;exitDx=0;exitDy=0;entryX=0;entryY=0.5;entryDx=0;entryDy=0;entryPerimeter=0;endArrow=none;endFill=0;" parent="1" source="1ipDuGfdl1B0XLeZwhUJ-44" target="1ipDuGfdl1B0XLeZwhUJ-45" edge="1">
          <mxGeometry relative="1" as="geometry" />
        </mxCell>
        <mxCell id="1ipDuGfdl1B0XLeZwhUJ-44" value="Ubiquiti" style="shape=image;verticalLabelPosition=bottom;labelBackgroundColor=default;verticalAlign=top;aspect=fixed;imageAspect=0;image=data:image/png,iVBORw0KGgoAAAANSUhEUgAAAGkAAABsCAYAAABpT5yJAAAAAXNSR0IArs4c6QAAAARnQU1BAACxjwv8YQUAAAAJcEhZcwAADsMAAA7DAcdvqGQAABr1SURBVHhe7VxtzC5XVZ235UJKWqQtRbS3tECqgvLHBKpSKIqKCRhBvowxiEFjIqJBEw34QaWgMcIPY4QUFaqgYCHSYvhhFK1IaUvRBCkfAial9EqBftFioRTvda/9NevsOWeeedobg0lX3z1r77X3OXNmzpznzPO+Fw6e8IQnHJvuxzc0TnC+H9/AuH+S/h/g4MUvfvH9H3ff4DiYXvBhmaQD+RFbMFxfbN18MFA1Yq7b2t9qPhhufBh4PMnlHPPn7thRZ8Ru4ScLTVKnHFqP4Zb+7lUdXM8P+yAWyBXiguESJ8IHs1WItrh5wWxySGZfGEjWxMxDUI7Lws9zuAHaZ7CYhsEMz6cBpUhDOSR7Ptn9ZPZRAD/YHWXknQUySZg1uMQLQGOrCE04n5ZgMs2DwOwjBz9YEzMvQDltH4Yn1P1FDu0gu5M1GjgzPJ/WgcpySPa6ZPeDm1qwucYstMkTbFZj9iAFm2uAw1YRmnA+EUbZRGM5ZMy+GJDM4gCLtFxQt4mIrIffjLPUKLLQrQOV5ZDsfnNtpGmNULK5xiy0yRNspn32dOIihuv6woLkkG2J3Z19MBvn3IfDnL4Qa41hLwmT+GjJazvPdfuATLHWCEWtuqE7KyLnh2Q2z6cP7hnVAcrQg5s9SRDcCIukQUM5xBOQzCaHYK0VAoITnmdoKIeQOyUt/KLUAOe1Nr2+leXQxOBwAPYJKsuB70VlvSdsoaMA7I6ymPzQniQIVocNyKRAfA3Brie7n+yWbeCmUyxIDtyWLWp7ceq+eqppbYA0zZu7qAcBGqtTjKChHLKt552Uo++00LTC/GTTV1YSW4VoKoM9H2XgztOgCJ6dJbh2pWyGX4wiOFDjHugkzbl9AKwpWEiRQPnRvUlmHwXwgzWhP76SYKIpq9NyzW+xbh8r2ibjPShMdN2L3F9wNWoXMY/n3oyNr1UNII1ZDSHHbMucTBJgM2asjsfOzYy7DyRr0uMQC0b9ZrsBvGQMvSpzExyLr33UGgH3u3oOR9TwtTRaBIwscCNoKIdk90v/PklyAZi1ZHMtBrmehpzryaGHzww32P0wrq3tqq3qsUJ8ZaTmNYv68C2c8y5EXVqQHCIX9WqkKQspwnE9LUgOyWQuwXySBDx7yXIAq7kPJIdTgVrP1TbAqBmwyPmAq64rw3M7EXVUn/1RP9BCX4yjQgq4Nn13Il6AiwtUlgP3IebfkyTIWWS/oyGoXLU145pd9fo7Nfi0SsLyO1Fo4QsfZW1ko/xKu8V1itu9BsgdDYAfbazQLUgOXCN2QsyWYu3pV3AxQ7Qy+wrlCApY7pUMmiUWe0zEwtkWWtFHe9Pa+TgX/pZ6MO6LsipLbpI9HGAlCdfZBQHBVkQWJAef7dkg68F8E0grxrlefs1ypVXzlZR9DurQfnFOkUKzoNVUdr/WKUpODSHHrgHwuY0iGIi3O10FYmsTWhG18aSEP0LWuHXRGWjWR8w1QMRsI0RuUNOcx6gLzg3rkPBk1KgkB0rNHA7APn9PYq7aqvlTyrWb2oX1nvLQwGK6x3jc3Yuqud7sTaPasLW+PKfXxf4OG94ThByHFd3bzG93CprinGGY66ElXGdwuKgv2Lo/LPrhdn4xjQHC2S40gPINA9yGwFovH4gcmP1dqO3CALn3/e9Jaggp1hxqAY9VI17UO/fqevktNtyHtlisAuFmLIM+e+NVlzUhRWhw3W/MUupbJ25Bcqj1arySmtn0ILQ1cM1a/c6+MCJGxMzua18UL9Bp0wXlRuPr6ax127kYOTD7ChYZonGt2Pz3pGq4gGD2uYatV78wPLG9pza0yHPM7H7uUZGr1mnT1deM27jpdbm2ei+o3VpdWNSA1Reidu3bXReuR3qttKJXt9a+6k2sIzeojpi0Lqgm2wSzXxh75dYxMpDTvByyrtMgJDD7A7RvdzxQ1eC6Xy3r3Xp5rqt5PJGs15puXJ7stNCZqbZ7fjHonNtax/paPgxQLj7XuNTkvL7zdufYc7YVm/Ny8l21PkBj97l9guuYGdBGeuHhuHrtBWvXgVzkd9UFd+oPpud+yEaWr9merTHXaOh+rW/ywW4qsa6O0444kHoAMW5g5Q706VTH2VH1iOlpVm50dcwWOlYxOHSJlUucbcEeN5qKspJwTXHdwT1wza66Xr73nWgTfMBNn9xX+JUZ0HbpHc5rCc0xvEZnoMmX4l5dKTHBxP7v7tgH94zrRtbL13bDmPYUzvX0oZXaeq602mfEG9uzpj6oas6RD82lRR3Vlz2JwDO8mGXCKN9oOFkgfNaAnj7yAcS1DXPVANZ7WMtVlNre9bLWu0eBps4D0g6m51x7zAQcxLKoxOl73M07k/7CJ52ijNiamI4a9TTGRbku8fU3f3264hNfszhA7Zr6TSg3VJ/SgPgZupP5Y9NDH3zC9I5fPMPjafrjf7hjuuxDXxYPNdGW20HzOHVZkcqlTmtVcJ8ZrsXy4iCTpJCLtrvooftxczJX4iavjpmGB9Pdf3aOhzZJB16nTDrjdy6/Y7rwsi+JZzV6DbUokQUaGSL2S0t4nHI4rJMmP5ik297wSNem6dl/eJNPEhDtmN1UCl+DmVNjPTS4PqmulX/B6sx+5MP2yYsdFTt2VMx9jcNIl58ZCNR8T9D+4Jc9gmsin9/2e7VkvbGP+mdAK9eYxnrmQ05n9jVPljlg9nfvSUDvIU4tOmW0GiKZhnDmOKAuxauw1vuhttnVR+SM3/qBO82uvFPjPkb9ib72Gwxgx70+mH78mu170iKvjpmGYNan6a4/nT/ukEMamcXHHXKuv0o+6i687HY0V30G+yOgZuWGEbV14ledn2oljsU0BLMOAkPXwA0UusdZ46s19Fi9Htv3pMCue6D5OIED2ug7kOQ0IwerMAe+xibm2APkFkRmXNHPQWNd/GbMx6YLn33q9OafO0PsYc5nTE993El+zTug98DcBiOdsfb90duu70lsu/KRK/6854j5HsTGe5TuWfqXVzxJcx+t8b7hdfAbDh21XO/W6fenzz95etGTYaekWS7ae5/Nb7g7fave0VjXftzPkDRF+Gvfk4DFUxAddJC1dBIcqYmdcnYi1egLZLYgtMizAcEMzgPir/4mJHIjFoxWiuqdvkf1gU5+99+Tek9iPKFZwzqzrxBZHbBmxcCHRpa6mPUx99PGrA9M+pvjlb60zv2KrN9i0ofeD+q75hea64sV2cbt7+4WkKJRftSm0aU9Ic5rgWWbihRYrVXhs95jthUMrx1YS/K5AuKP7pXqZSxcmz7VuHYwPfsDptorlhuIWSzfsqqugRvI2ePbL36USvwlVj1wRwe/+t23TRddji+zDKtTwoh7HOjlFek4PBZ60VMe0sTR7oLHystDIJ+wafqZi494uRyCzRFybmKx+oTqgfQm7znBcpL8ptkoQWt6MOVK3e0Xyyu4+JB1IlT22BkH1l9z+e3TRe/2V3DRGqAAF6CM2OQGoSfbJc4o8SD/T79x1vTUxz5Y/YqDn/wotXOOuNHFNASzDgL3dHwEgi0uexI+C+vn45oeFrmom+ttjzkqJv7Ro743Sax7kMSsC+v+pH1x39aXWv77htDFVCNe2KCvUZz9iDZCthlZ7ZdzoY30Nt7z7U6w69szA7X2o+cL6Lndnx2vM1fQRm3M+hbUvnqg/Kbrq/1FzOcqNei3e0+dB5BJ8k71Ljqzz/nGZMZrfY2F9Y3OV0c1feuLuNTIoW/8u7nwkzs18WTy2FiPuMm7rSHruB839MX99fquevf8Zj5JgmY2o6AiNOFNT1vbS54bvpFCdfcNTdZthMhFHcWLMXK+h135gvxU8TYbfnuwOEejO6DR2Mffk9I6T0paPJFhoc1cv//AbP9xnVaQriyPrX30NThX7k/FQs+8cFMLv2clv4asLYab3dMX5+jY4vuS2cH0Y+8TT6ZNZw4cU+issZtKrKvj1I+/8PpHq2Ld4O0N73SRthiCaRb/3t/eOv1uvt0FtIGRjDjCLiLfY0U68ur90OmVz5n/qGew/MvfftN09ae+IuFcrzn5uf6Ld3ssyLyzxiNfHSfPaei+uq3e7knVWB/MshxKXRvHKlHjFVR1jsXk0Jqe38fA5+tZ5LMuxi7cXMfR6ZwzHiB2qNgD1W667Z7p+i/cTfbV9LmPPrvlGNzneIsu7G93EAT8dDZPqueBfd7uADmJn84hngtGlIGmg9PIjaDnZb1ygHWxbBdwfSdGFxptt3IPnFupkyFs/J4Uxk9Lz5Y5XTGyH9gK8u9FVRe2vci+T0Gzvqg/aLGvaN79hsNYF8v+RGv2JrcRmj477fayaM999fpc5ufvSYuHRor2Rr8NVM2kY8whoHEKJZtvTqxXDvTy7jfXWdvtAvXDjD4Xb3a1rgNtZ26Doi/f7rRTmmGN3d9lnTreb3IvIq0x1+Uwm/bp44n+WWuYxs36YlxUi9wQ1Kbxe32Gea621djPObLazm1eSUOgoTPPen0K2Ad879LWOEQ3ggzdydghU+UeEH6tGqFX45o+7TVfBz7DXiAOTec83NlfKM4540FeEX1tZUe9d4pSQziYnvleyUoLeyeeOXrhOH2B+pxzDnjtjX/0GOV49YaOlEb4cX1+FT+Y/uA9t06/L6/hCugYP4q6QCIKmDvI9Jy/8HmPmF75vG/xaDsOnvtBOo072e+WWExDMOsgiuWH/p4UCYLqjm4NddbwDP34Ms+z+Eibo/D0qBK8yAGWHSNylXvo9cUXeW9A58172QPVJdxfayerv92T0Kjn3wfDJPFvEhqDRnrsWfPbmJuOhfaRXZ/tC/O2i+vD26S9Ue4NbRN98njC91x3f+f6jmnNbPP3pJxJFDEX1FnvxYpl+xyDA66G6RgOn35I+iliIjTO95itYtbPlj3m+CHOtYsd9d4x6G2x8z2JOfwwj/W7BsVsJXfDzffIwvDvRcK6Yvh7kTB/b4J++NQTaTVxn3O/xuz3cmGcc9/75xW8dUXhNw/r57s31hmj8463OylsZltiYGW1dJ8MlHkpt9BxuA8n/LOwkjTKLCE0zveYDQgGxNdxHpsueNzJTRlXjREXGdXUwYIDo5j03r0TDL4nFW1f0/b2FHz2lq8J+ROL1QPzmPV4ksOsD++n+X1btfapm3nFaHyPfNgDheZx5He1FdhKov60Huznht+Mn+M189qI3Ze3O3H8qbpviPbeuQKT9HX3ZuQYCkI/6/QHTN/3bfVfj6JBNOo0XkW05T6m6YUXnKZhq4oPrTdAh/6ClVssVkDkKgPiL+455wukzlcSP33hb2E2zs125Nav+RNq+868Ymz/0Rx0yZtu2vPPO8X3otova1st2rr5Hnf+d5wsoe2L8/jacYArPpMrifvvnGdhgxpM0kKf+y17kojM+YYhjJlfxBb1gdpj09Wf/oqFgEpy4e4acCPcBTz43nPjX+lEkltxgy0offi4nyL7kWVsTHZTLLJheLYZYKwkBufDb9vsBN/bhPnznqSC+xGHv8WyPT9dx6YbZU9qV5CYPrmmsa4ry/3Dp504Pf97HpL9zMZP4/y0zdpIb2t+6smnyX50SOQyNpivoDo+GHDFdfiDZD0nrGi9e8rxyMrvBjf87m4r0DnM4SvtyK1fn67x1TRXeJ0OAj/4TwU7io7UrzzjdHrTqwiNOQyoPOPsMw5NF//82XH6bOY0o6Nf8o+fl5VEnw7cIj9dQouWYQCx1vdyLWQlYfbDpGgT9ww5Mnzu+2f/NZ/6b/t8lzhXkD+tappb6mfK96VLf/mw98nnGXFYLz/bG3727OY8uWI646j6FR+5zfvs9C81c65nXM+8but70pDXgBqxfKqm6W+utf+FnGeym4yDQxeGAVhJV11kv6Q1NC0KhwGVDe95xbnT+Y+V70aApOI8AFwNXQuf9X++Dv/8OZUWG1bFKuiecT+7vydtidUfPxVHZF+6+lN3iWtPZz6hMH9CORemT7TY4dMeoBN1luxTkmiNx9KL3R4pk/3h1z5uepK+0c39q+8rpZ6XNdgl771puv7z/g9TYPVepPG9GK2aUUy697/jf1WxBnTg3H0zCdiJXv62z1soyCpuJuY0g/TDpx2aLn3ZOdOvPvNh+j3KENXCeg0UO+PL6q8/65unD7/uO9VHyu5B1Fi1TEM4DlXsqM6x6S1XzNdg4AbBjJqLeq6tMRCx8cH09HeLF7MkrO6uGHAHf+8xp+VaJ/jzXzhrOu/ck0SxvynhYM2NU4+45INvvPWe6epP3jVdJXvdpR8o//RL8med/sDpSd9+sk7Krz3rESq2/Zk/6yW2AtVUFvzLx+6Yfvi3/90CBd1YmnDVNezlnfeMfZLMNXLeOwbER4gea53gTFkN7/2tR4kXN8Nvghwi9h+J4agy1+A/+BqaD/7sLfdYLLquFuh2SN36Mx0uDqk7awnHznCefuFHpvfpfgTETXQMbzJAuZRrXYmLfuL0mJ+4UD3AxmdgH6hxIjoE2A9AE5P2d37lf/SV/GnfZRt3Uy3BorULSoukAdfzTQ8+QezE6SEnzX95YWTojlKpCfD9Dfc1l94wvRUfdRBwH5qbKBZhOs7cWdZRTabd6fbLb3fDSRhBetiwF1W869ovTR/89F2esrxuzObFzxw3FHWGuCYw3w+4GqYzI3Wnpl3owuG/76Nfml7zjhssaN7eGKLlveghcpWBXq7VDqYfepd4MkM6STFTNRb4x0BTo0Q12Q5gXUDt8bH397/5aIvwsYJmnq8fMxrhh/Wocz3iYNVLO4hgrSN90Y5i4PEv/dfpM1/0L6+4Z5B5ZiFmGI6zUibFrfltcfl8GPEaUNOrH7W1X7q+4m03eSyKlOb4BHA1DC2FWQK43UJ3Hw7nFBBc51zTn/AzXnWdTNBXTVAsWjgD7AdC43aVd+PE6dEvmPekfbC6vANSo0+e+4RPHPmq7U+P9y+WASqrZ+BuOBc3dgHRmzrnBqUGQH/PvOi66f0fw5tjp4eUwhno6Gi48kKrsUDr53z7/4gC1DgxN2p9B9ppW85XtPpl194uK+pzHklW0lpRusjQNbsGC1wSyH4lgcuCeZ8zPRKm61El5+zv2PSjr5YJ+ji/2muBuYoaB1gXXtxLynUZgM8xuvnBd8q4pDft0JnjgH9Gp5YxIH6GHR3nbOoBj4XOPPXQdMlLzp7OlO83Vub7gzMOJhed840OCX4bR7167miNxzfcfPf00jf+53Tlxwav2hGnzHnxF7qzUibFrfn12Pak+pbGMa6gC9SUdguwzvXAHB+57Z7pRa//zPSuD97u4zMdT7WFzlX3ozbSn9AN9uucCPKgxwzFQO//+B3Td7/s36YrP+6/m9v5tsb5kR/o5Xt1fZw4Pep5++1JOvi1E+zKO5rJPybfoY5O/yH7FL5LfausrFNOOtFz1FvpdnEWF6qeE9UBVs+f/N3npl9646ddAagjjFM74E4orwiH9UyKW/OU47Ypt3UH09Pe4YrfNf1YUIcoNMEiL4wesmSHHsh+KuwV/VlPPHV6yY+cIWX+EeX1/PEERyP8sB51rkccrLr897rLj0yvvexG1Q1+KwK4SWiWciffwOM6CRmGU+sijkMbH0w/8Nfi2gUohxuOX9wyDtxLPaB5jGZZp5N13qk6YYd9v2putjnKqns+48Jw8Zfid15583Sp2Gdv5tdrwpbJGebFr3pv0rR96LWujX2SzDVyXsSA+BnWujw4WAc4J0C/OPMoX3Dm6Q+SlfVwnazzzj1ZbzqaNJPgrDr+8/yNt9w9vfOqW6arP3HHdNUnv0w3o6LoGdZ6jxf9DPR687MuD8bhZt74YPr+t7tnF6tXqFTiwLAuEHoeHKTjjIt8oGhNPWArDJOGf478xHPt/y3ZurOi/7oV/1DkYLrmk3dOV2NS5qs3RH8pl3zC9VEdbmKvn2aSyK+TVes0pBp3VyYpD4bupImfYckvdAf6wRmbfCM4XF/UHwfozUW/6LiHoi/qPAbpMEf1hbMs4lFdFgqwJz31r0SRM+VNcGcxaVng6OnkD+vFMIZFPlD0rNdIsBB2AxeN8ykjNnlG9FcTHnfrQcJNM9Ib9HTxMwyn1hn3f7ffBWp6daxVf584MNIDkYu6akDRdD6DHaElqs9xYA89zzWqF+DrTP2O2oGspL+MFk7CUDTMM5lujhPlFKRne6DULdoFor1YtFdm4TiBV0BwgyKMVkxg68oJlJWyqNNw1ua/J6UovGF2LdfLc3ug1tU40NF1XkLjfKlboNZFW7fFfNe6QI172FJfa0aIHDP2pAve4oqPvK6Y1I126ltW0iLfCIaUa/1xgK4M9AtGbPKMIjRPOrAxr8S50ItW6zJvTCupggupg4B+nrrfoNZviYNZD4TO+V7dGrjdWh+cL9j0kNT24Y/65XxgqR1MT/kLj3wUSjSizSsLEL+rC7Kfik6dPuGj+grU4RIq74HFSggUXccFtjAdkOpcT37VMwzHOesitoOsJErgRIrQGK7pftPLA6zXun3aBbM/Qq1Zqw2ghk2Q1w6QrtgRL+4J+4zQhZt9ewSrOZiefIlXyyh1oDza0AB39EmPMJOCyBu1OUHTDij5wM6VBD062oc7yPQgX9sN6z3equv1OSuizmiOjec9CY0UWSlgPwAtdMp3n6YSN09PzQdC25LfhxmuDT8Vtupb6wKu572uiHZhhoPp/DdbpA2pdT7J3KP4GZb8QnfstYLAFi4xTOyBOMF8AxQpixMruUGt3zOv/TornLOs6plQ0J4EtEnDKO/+lhW0GgdYX8tXA3rcMyCY0FwD51nfik57fb56/SDX01vISnpTqdIek2ZnX92xdSVxP4v6RrgPiH7KJS/kku/VK1gXH6H2U+slHunmODsQ0uV2viehojRSbNX3jR2r+0MwG7APV43RqwN6tcCgjm6swetG+gilvrOSKrxFNuQexO/qgMfDvGO4Fw3qjyvixOUWZFhvjcfZbCWv4Lz4XX03Vn7jEECHo05ZL3U796rALp3zvbotqO139Slas1dwvWDn81Pq92q7xIaVNIKfLU9az75HHiNo6hrh/wDlFmQ4uDW5x1i4bF/bDfrZiA0raYRdA+nFrHFc9eBe/ngg+uZzMLbq+8b3DvdhkgAZAJ6atPq/96z/u9Aw0bMt+z2LPsDse17bUh8RR12N0+8Z5Rf9UTu9rlLHBk3t+OA+TlIH+inFA6wDHg2e60Y1gtwron4QN3XMDM5RPj9pi16xte4+YZr+F52onR+WwYVLAAAAAElFTkSuQmCC;" parent="1" vertex="1">
          <mxGeometry x="390" y="195.55" width="46.67" height="48" as="geometry" />
        </mxCell>
        <mxCell id="1ipDuGfdl1B0XLeZwhUJ-45" value="&lt;span style=&quot;background-color: rgb(255, 255, 255);&quot;&gt;Wifiman VPN&lt;/span&gt;" style="sketch=0;points=[[0.015,0.015,0],[0.985,0.015,0],[0.985,0.985,0],[0.015,0.985,0],[0.25,0,0],[0.5,0,0],[0.75,0,0],[1,0.25,0],[1,0.5,0],[1,0.75,0],[0.75,1,0],[0.5,1,0],[0.25,1,0],[0,0.75,0],[0,0.5,0],[0,0.25,0]];verticalLabelPosition=bottom;html=1;verticalAlign=top;aspect=fixed;align=center;pointerEvents=1;shape=mxgraph.cisco19.rect;prIcon=virtual_private_network_connector;fillColor=#FAFAFA;strokeColor=#005073;" parent="1" vertex="1">
          <mxGeometry x="491" y="220" width="64" height="50" as="geometry" />
        </mxCell>
        <mxCell id="1ipDuGfdl1B0XLeZwhUJ-49" value="Minis3" style="sketch=0;points=[[0.015,0.015,0],[0.985,0.015,0],[0.985,0.985,0],[0.015,0.985,0],[0.25,0,0],[0.5,0,0],[0.75,0,0],[1,0.25,0],[1,0.5,0],[1,0.75,0],[0.75,1,0],[0.5,1,0],[0.25,1,0],[0,0.75,0],[0,0.5,0],[0,0.25,0]];verticalLabelPosition=bottom;html=1;verticalAlign=top;aspect=fixed;align=center;pointerEvents=1;shape=mxgraph.cisco19.server;fillColor=#005073;strokeColor=none;" parent="1" vertex="1">
          <mxGeometry x="94" y="360" width="27.500000000000004" height="50" as="geometry" />
        </mxCell>
        <mxCell id="1ipDuGfdl1B0XLeZwhUJ-50" value="Minis4" style="sketch=0;points=[[0.015,0.015,0],[0.985,0.015,0],[0.985,0.985,0],[0.015,0.985,0],[0.25,0,0],[0.5,0,0],[0.75,0,0],[1,0.25,0],[1,0.5,0],[1,0.75,0],[0.75,1,0],[0.5,1,0],[0.25,1,0],[0,0.75,0],[0,0.5,0],[0,0.25,0]];verticalLabelPosition=bottom;html=1;verticalAlign=top;aspect=fixed;align=center;pointerEvents=1;shape=mxgraph.cisco19.server;fillColor=#005073;strokeColor=none;" parent="1" vertex="1">
          <mxGeometry x="160" y="360" width="27.500000000000004" height="50" as="geometry" />
        </mxCell>
        <mxCell id="1ipDuGfdl1B0XLeZwhUJ-57" style="edgeStyle=orthogonalEdgeStyle;rounded=0;orthogonalLoop=1;jettySize=auto;html=1;exitX=0;exitY=0.5;exitDx=0;exitDy=0;exitPerimeter=0;entryX=1;entryY=0.5;entryDx=0;entryDy=0;entryPerimeter=0;endArrow=none;endFill=0;" parent="1" source="1ipDuGfdl1B0XLeZwhUJ-53" target="1ipDuGfdl1B0XLeZwhUJ-29" edge="1">
          <mxGeometry relative="1" as="geometry" />
        </mxCell>
        <mxCell id="1ipDuGfdl1B0XLeZwhUJ-53" value="Minis2" style="sketch=0;points=[[0.015,0.015,0],[0.985,0.015,0],[0.985,0.985,0],[0.015,0.985,0],[0.25,0,0],[0.5,0,0],[0.75,0,0],[1,0.25,0],[1,0.5,0],[1,0.75,0],[0.75,1,0],[0.5,1,0],[0.25,1,0],[0,0.75,0],[0,0.5,0],[0,0.25,0]];verticalLabelPosition=bottom;html=1;verticalAlign=top;aspect=fixed;align=center;pointerEvents=1;shape=mxgraph.cisco19.server;fillColor=#005073;strokeColor=none;" parent="1" vertex="1">
          <mxGeometry x="590" y="350" width="27.500000000000004" height="50" as="geometry" />
        </mxCell>
        <mxCell id="1ipDuGfdl1B0XLeZwhUJ-54" value="Minis1" style="sketch=0;points=[[0.015,0.015,0],[0.985,0.015,0],[0.985,0.985,0],[0.015,0.985,0],[0.25,0,0],[0.5,0,0],[0.75,0,0],[1,0.25,0],[1,0.5,0],[1,0.75,0],[0.75,1,0],[0.5,1,0],[0.25,1,0],[0,0.75,0],[0,0.5,0],[0,0.25,0]];verticalLabelPosition=bottom;html=1;verticalAlign=top;aspect=fixed;align=center;pointerEvents=1;shape=mxgraph.cisco19.server;fillColor=#005073;strokeColor=none;" parent="1" vertex="1">
          <mxGeometry x="702.5" y="350" width="27.500000000000004" height="50" as="geometry" />
        </mxCell>
        <mxCell id="1ipDuGfdl1B0XLeZwhUJ-60" style="edgeStyle=orthogonalEdgeStyle;rounded=0;orthogonalLoop=1;jettySize=auto;html=1;exitX=0.25;exitY=1;exitDx=0;exitDy=0;exitPerimeter=0;entryX=1;entryY=0.5;entryDx=0;entryDy=0;endArrow=none;endFill=0;" parent="1" source="1ipDuGfdl1B0XLeZwhUJ-58" target="1ipDuGfdl1B0XLeZwhUJ-3" edge="1">
          <mxGeometry relative="1" as="geometry" />
        </mxCell>
        <mxCell id="1ipDuGfdl1B0XLeZwhUJ-58" value="SwisscomVPN" style="sketch=0;points=[[0.015,0.015,0],[0.985,0.015,0],[0.985,0.985,0],[0.015,0.985,0],[0.25,0,0],[0.5,0,0],[0.75,0,0],[1,0.25,0],[1,0.5,0],[1,0.75,0],[0.75,1,0],[0.5,1,0],[0.25,1,0],[0,0.75,0],[0,0.5,0],[0,0.25,0]];verticalLabelPosition=bottom;html=1;verticalAlign=top;aspect=fixed;align=center;pointerEvents=1;shape=mxgraph.cisco19.rect;prIcon=virtual_private_network_connector;fillColor=#FAFAFA;strokeColor=#005073;rotation=0;labelPosition=center;labelBorderColor=none;direction=west;labelBackgroundColor=default;" parent="1" vertex="1">
          <mxGeometry x="280" y="145.55" width="64" height="50" as="geometry" />
        </mxCell>
      </root>
    </mxGraphModel>
  </diagram>
</mxfile>
